<svg xmlns="http://www.w3.org/2000/svg" viewBox="0 0 800 900" width="800" height="900">
  <defs>
    <linearGradient id="bgGradient" x1="0%" y1="0%" x2="0%" y2="100%">
      <stop offset="0%" style="stop-color:#2c5aa0;stop-opacity:1" />
      <stop offset="100%" style="stop-color:#1e3a6f;stop-opacity:1" />
    </linearGradient>
  </defs>
  
  <!-- Background -->
  <rect width="800" height="900" fill="url(#bgGradient)"/>
  
  <!-- Brazil Map Simplified -->
  <g id="brasil-map">
    <!-- Roraima (RR) -->
    <path id="RR" d="M250,50 L280,40 L310,50 L320,80 L310,110 L280,120 L250,110 L240,80 Z" fill="#5a6b8f" opacity="0.7"/>
    
    <!-- Amapá (AP) -->
    <path id="AP" d="M340,60 L370,55 L390,70 L390,100 L370,115 L340,110 L330,85 Z" fill="#5a6b8f" opacity="0.7"/>
    
    <!-- Amazonas (AM) -->
    <path id="AM" d="M150,100 L250,90 L280,130 L270,180 L240,220 L180,240 L130,220 L100,180 L120,130 Z" fill="#5a6b8f" opacity="0.7"/>
    
    <!-- Pará (PA) -->
    <path id="PA" d="M280,130 L380,120 L420,140 L440,180 L430,230 L400,260 L350,270 L300,260 L270,230 L280,180 Z" fill="#5a6b8f" opacity="0.7"/>
    
    <!-- Maranhão (MA) - HIGHLIGHTED -->
    <path id="MA" d="M430,230 L480,220 L520,240 L530,280 L520,320 L480,340 L440,330 L420,300 L430,260 Z" fill="#ffa500" opacity="0.9"/>
    
    <!-- Piauí (PI) -->
    <path id="PI" d="M480,340 L520,330 L540,360 L540,400 L520,430 L480,440 L460,420 L460,380 Z" fill="#5a6b8f" opacity="0.7"/>
    
    <!-- Ceará (CE) -->
    <path id="CE" d="M540,280 L580,270 L610,290 L620,320 L610,350 L580,360 L550,350 L540,320 Z" fill="#5a6b8f" opacity="0.7"/>
    
    <!-- Rio Grande do Norte (RN) -->
    <path id="RN" d="M620,320 L650,315 L670,330 L670,350 L650,365 L620,360 Z" fill="#5a6b8f" opacity="0.7"/>
    
    <!-- Paraíba (PB) -->
    <path id="PB" d="M650,365 L670,360 L680,375 L680,395 L670,410 L650,405 Z" fill="#5a6b8f" opacity="0.7"/>
    
    <!-- Pernambuco (PE) -->
    <path id="PE" d="M620,380 L660,375 L680,395 L680,425 L660,440 L620,435 L600,415 Z" fill="#5a6b8f" opacity="0.7"/>
    
    <!-- Alagoas (AL) -->
    <path id="AL" d="M660,440 L680,435 L690,455 L690,475 L680,490 L660,485 Z" fill="#5a6b8f" opacity="0.7"/>
    
    <!-- Sergipe (SE) -->
    <path id="SE" d="M640,485 L660,480 L670,500 L670,520 L660,535 L640,530 Z" fill="#5a6b8f" opacity="0.7"/>
    
    <!-- Bahia (BA) - HIGHLIGHTED -->
    <path id="BA" d="M520,430 L580,420 L620,440 L640,480 L640,540 L620,590 L580,620 L530,630 L490,620 L470,580 L480,520 Z" fill="#ffa500" opacity="0.9"/>
    
    <!-- Tocantins (TO) -->
    <path id="TO" d="M400,340 L450,330 L480,360 L480,420 L460,460 L420,480 L380,470 L360,440 L370,390 Z" fill="#5a6b8f" opacity="0.7"/>
    
    <!-- Mato Grosso (MT) - HIGHLIGHTED -->
    <path id="MT" d="M240,320 L320,310 L380,330 L400,370 L390,430 L360,480 L310,500 L260,490 L220,460 L210,410 L220,360 Z" fill="#ffa500" opacity="0.9"/>
    
    <!-- Goiás (GO) - HIGHLIGHTED -->
    <path id="GO" d="M360,480 L420,470 L460,490 L470,540 L460,590 L420,620 L370,630 L330,620 L310,580 L320,530 Z" fill="#ffa500" opacity="0.9"/>
    
    <!-- Mato Grosso do Sul (MS) -->
    <path id="MS" d="M260,490 L320,480 L360,500 L370,550 L360,600 L320,630 L270,640 L230,620 L220,570 L230,520 Z" fill="#5a6b8f" opacity="0.7"/>
    
    <!-- Minas Gerais (MG) - HIGHLIGHTED -->
    <path id="MG" d="M420,620 L480,610 L530,630 L560,670 L560,720 L530,760 L480,780 L430,780 L380,760 L350,720 L360,670 L390,640 Z" fill="#ffa500" opacity="0.9"/>
    
    <!-- Espírito Santo (ES) -->
    <path id="ES" d="M560,720 L590,715 L610,735 L610,770 L590,790 L560,785 Z" fill="#5a6b8f" opacity="0.7"/>
    
    <!-- Rio de Janeiro (RJ) -->
    <path id="RJ" d="M530,760 L560,755 L580,775 L580,805 L560,820 L530,815 L510,795 Z" fill="#5a6b8f" opacity="0.7"/>
    
    <!-- São Paulo (SP) - HIGHLIGHTED -->
    <path id="SP" d="M380,760 L450,750 L500,770 L520,810 L500,850 L450,870 L400,870 L350,850 L330,810 L340,780 Z" fill="#ffa500" opacity="0.9"/>
    
    <!-- Paraná (PR) - HIGHLIGHTED -->
    <path id="PR" d="M320,630 L380,620 L420,640 L440,680 L440,730 L420,770 L370,790 L320,790 L280,770 L270,730 L280,680 Z" fill="#ffa500" opacity="0.9"/>
    
    <!-- Santa Catarina (SC) -->
    <path id="SC" d="M350,850 L410,840 L450,860 L450,890 L410,910 L350,910 L310,890 L310,870 Z" fill="#5a6b8f" opacity="0.7"/>
    
    <!-- Rio Grande do Sul (RS) - HIGHLIGHTED -->
    <path id="RS" d="M280,770 L340,760 L380,780 L400,820 L400,870 L380,910 L330,930 L280,930 L240,910 L230,870 L240,820 Z" fill="#ffa500" opacity="0.9"/>
  </g>
  
  <!-- Legend -->
  <g id="legend" transform="translate(50, 800)">
    <rect x="0" y="0" width="30" height="20" fill="#ffa500" opacity="0.9"/>
    <text x="40" y="15" fill="white" font-size="14" font-family="Arial">Estados com atuação</text>
    
    <rect x="0" y="30" width="30" height="20" fill="#5a6b8f" opacity="0.7"/>
    <text x="40" y="45" fill="white" font-size="14" font-family="Arial">Outros estados</text>
  </g>
</svg>
