<svg width="744" height="747" viewBox="0 0 744 747" fill="none" xmlns="http://www.w3.org/2000/svg">
<path d="M345.5 688.787L345.347 688.64L332.347 676.14L332.165 675.966L331.918 676.007L325.918 677.007L325.91 677.008L325.902 677.01L319.438 678.302L322.902 671.807L330.341 664.865L330.384 664.826L330.416 664.777L337.41 654.285L345.247 644H348.238L348.388 643.815L354.813 635.905L361.21 632.954L361.35 632.89L361.429 632.757L364.338 627.907L373.673 624.469L373.722 624.451L373.765 624.424L381.584 619.536L385.379 620.485L385.493 620.514L385.608 620.488L389.978 619.517L397.851 621.978L405.342 624.475L405.419 624.5H411.329L415.693 627.895L415.753 627.941L415.824 627.968L423.7 630.921L428.604 636.807L434.592 645.288L434.696 645.438L434.873 645.483L444.373 647.983L444.436 648H448V649.438L446.537 655.285L444.093 658.709L443.847 659.054L446.715 661.922L446.803 661.96L449.765 663.229L441.577 676.233L441.533 676.304L441.514 676.384L438.54 688.77L423.703 706.575L411.331 711.029L411.173 711.086L411.081 711.227L403.581 722.727L403.551 722.772L403.532 722.824L397.581 738.693L388.475 745.882L386 744.232V734.138L387.413 731.782L390.4 727.8L390.427 727.764L390.447 727.724L392.134 724.351L391.8 724.1L385.861 719.646L379.908 711.212L379.84 711.114L379.734 711.059L371.333 706.61L366.9 700.7L366.829 700.605L366.724 700.553L357.842 696.111L352.916 688.723L352.714 688.419L352.362 688.52L348.596 689.596L347.623 693H345.5V688.787Z" fill="#211E6D" stroke="#FDFCFC"/>
<path d="M446.889 600.5L454.288 603.953L454.508 604.056L454.724 603.947L461.618 600.5H471.5V620.555L471.512 620.608L473.488 629.503L471.521 638.847L468.094 646.681L459.696 653.103L459.67 653.123L459.646 653.146L450.386 662.406L447.284 661.077L445.143 658.936L446.916 656.277L446.953 656.222L446.975 656.158L448.475 651.658L448.48 651.64L448.485 651.621L448.985 649.621L449 649.562V647H444.563L435.299 644.562L431.404 639.206L431.399 639.199L431.395 639.193L424.395 630.193L424.308 630.081L424.176 630.032L416.246 627.059L411.807 623.605L411.672 623.5H405.577L390.153 618.524L390.024 618.482L389.892 618.512L385.507 619.485L382.106 618.636L383.485 613.121L383.541 612.897L383.407 612.709L381.177 609.586L383.82 607.384L384.034 607.205L383.995 606.93L383.576 604H391.938L397.879 605.485L397.938 605.5H405.396L413.3 608.958L413.354 608.981L413.41 608.992L418.892 609.988L424.368 611.482L424.708 611.575L424.909 611.287L428.325 606.406L434.192 603.962L434.254 603.936L434.307 603.895L438.671 600.5H446.889Z" fill="#211E6D" stroke="#FDFCFC"/>
<path d="M418.297 533.457L418.364 533.487L418.438 533.496L426.396 534.49L432.769 536.451L436.7 539.4L436.833 539.5H449.766L454.534 545.222L456.01 552.598L456.032 552.709L456.1 552.8L457.436 554.581L456.032 558.324L455.932 558.591L456.109 558.812L462 566.176V572.931L462.426 572.994L472.168 574.455L475.053 580.224L475.138 580.394L475.314 580.464L480.218 582.425L481.719 583.926L481.814 583.964L483.675 584.708L481.766 587H475.217L475.071 587.243L473.571 589.743L473.447 589.949L473.532 590.176L474.955 593.971L473.571 596.738L471.242 600H461.382L461.276 600.053L454.492 603.444L447.212 600.047L447.125 600.007L447.029 600.001L438.529 599.501L438.338 599.489L438.188 599.609L433.241 603.566L429.803 605.04L429.771 605.054L429.743 605.071L427.243 606.571L427.146 606.629L427.084 606.723L424.279 610.929L414.649 608.521L405.682 605.034L405.594 605H398.569L395.158 604.025L392.158 603.025L392.081 603H383.369L379.478 590.353L379.375 590.019L379.025 590.001L369.316 589.515L367.54 585.962L370.975 575.658L370.983 575.631L370.989 575.603L372.989 566.103L373 566.052V560.5H378.5V554.562L379.918 548.888L384.158 547.475L384.419 547.388L384.485 547.121L385.467 543.191L388.367 538.358L393.769 534.922L393.857 534.865L394.768 533.5H406.062L406.121 533.485L413.954 531.526L418.297 533.457Z" fill="#211E6D" stroke="#FDFCFC"/>
<path d="M463 566.333L457.038 558.384L457.988 554.108L458.034 553.9L457.916 553.723L456.971 552.305L455.49 544.902L455.466 544.777L455.384 544.68L450.384 538.68L450.216 538.479L449.955 538.502L444.494 538.998L437.181 538.511L433.3 535.6L433.22 535.539L433.121 535.515L427.121 534.015L427.104 534.011L427.087 534.008L418.648 532.519L414.203 530.543L414.042 530.472L413.871 530.517L406.425 532.502L395.463 532.94L396.854 530.869L408.26 523.927L408.362 523.864L408.426 523.762L416.426 510.762L416.46 510.706L416.479 510.644L417.945 505.752L422.87 500.336L423 500.193V495.707L428.765 489.941L433.644 488.479L433.956 488.386L433.996 488.062L434.462 484.327L440.183 481.467L443.479 480.525L451.324 483.468L451.397 483.495L451.476 483.499L461.282 483.989L465.678 488.385L465.714 488.409L470.713 491.909L471.085 492.17L471.38 491.825L474.251 488.475L483.056 487.497L483.062 487.496L483.07 487.495L486.536 487H491.479L496.315 487.483L499.57 489.808L501.021 494.644L501.039 494.703L501.071 494.757L502.461 497.073L501.018 502.368L500.983 502.494L501.015 502.621L502.515 508.621L502.538 508.713L502.594 508.791L505.094 512.291L505.243 512.5H510.766L512.896 515.057L510.563 519.257L510.5 519.37V526.898L509.041 530.303L508.915 530.595L509.126 530.832L513.062 535.261L515.03 540.671L515.15 541H524.81L524.947 540.724L526.809 537H534.067L539.632 535.482L539.669 535.473L539.703 535.457L543.83 533.622L546.094 536.791L546.243 537H552.653L553.806 540.073L545.445 541.003L545.356 541.013L538.854 544.264L539.041 544.697L540.617 548.375L540.793 548.455L545.695 550.684L543.766 553H536.419L536.342 553.025L530.122 555.099L530.036 555.314L528.162 560H519.427L519.356 560.021L509.356 563.021L509.291 563.041L509.233 563.077L499.733 569.077L499.72 569.086L499.706 569.096L488.706 577.096L488.675 577.119L488.646 577.146L485.563 580.229L485.525 580.342L484.216 584.27L480.243 582.062L480.224 582.052L480.203 582.043L475.866 580.115L472.947 574.276L472.831 574.044L472.574 574.006L463 572.569V566.333Z" fill="#211E6D" stroke="#FDFCFC"/>
<path d="M308.5 497.399L308.461 497.306L304.583 488.096L308.374 483.832L308.687 483.479L304.575 479.368L308.473 468.164L308.484 468.13L308.491 468.094L310.478 457.661L314.947 448.724L315.059 448.5L314.947 448.276L311.809 442H316.05L316.098 441.99L323.817 440.446L323.931 440.254L328.786 432H335.157L335.287 431.909L340.034 428.585L347.259 432.438V432.438L357.259 437.938L357.371 438H361.644L361.765 437.924L365.757 435.429L367.973 434.099L373.206 437.904L373.468 438.095L377.282 435.915L377.312 435.891L384 430.54V433.05L384.01 433.098L384.463 435.363L379.616 441.18L379.35 441.5L379.616 441.82L382.116 444.82L382.273 445.009L382.52 445L395 444.52V449.783L395.243 449.929L399.813 452.671L398.571 454.743L398.5 454.861V458.5H407.354L419.73 466.421L419.807 466.47L419.896 466.489L426.818 467.973L433.5 471.79V475.41L432.032 479.324L431.966 479.5L432.032 479.676L433.5 483.59V487.617L428.368 489.018L428.24 489.053L422 495.293V499.807L417.13 505.164L417.054 505.248L417.021 505.356L415.54 510.293L407.635 523.139L396.731 530.078L396.671 530.117L396.624 530.171L393.172 534.115L387.731 537.578L387.632 537.642L387.571 537.743L384.571 542.743L384.529 542.812L384.512 542.892L383.58 547.08L379.392 548.012L379.084 548.08L379.013 548.388L377.513 554.888L377.5 554.943V560H372.721L367.87 554.664L367.581 554.346L367.223 554.584L361.349 558.5H355.301L350.977 550.333L347.991 534.408L347.99 534.402L346.49 526.902L346.41 526.5H340.627L334.237 523.06L333.979 522.921L333.731 523.078L328.394 526.474L308.5 523.077V497.399Z" fill="#211E6D" stroke="#FDFCFC"/>
<path d="M599.036 510.686L599.091 510.824L599.213 510.909L604.213 514.409L604.361 514.514L604.542 514.498L610.479 514.003L612.854 514.398L611.022 520.353L611 520.425V529.232L605.349 533H598.336L590.704 538.597L590.5 538.747V546H566.419L566.342 546.025L562.135 547.428L558.087 543.38L557.757 543.562L553.486 545.934L548.724 543.553L548.473 543.428L548.235 543.576L544.235 546.076L543.889 546.293L544.032 546.676L545.15 549.659L540.897 548.112L539.616 544.267L545.639 541.486L554.059 540.496L554.669 540.425L553.475 536.842L553.36 536.5H546.758L544.76 533.703L549.633 531.488L554.55 530.997L554.668 530.985L554.769 530.922L560.159 527.491L568.375 527.008L573.243 529.929L573.519 530.094L573.783 529.912L581.655 524.5H586.891L586.985 524.121L588.47 518.18L591.438 512.739L591.47 512.684L591.485 512.621L592.432 508.833L597.245 506.208L599.036 510.686Z" fill="#211E6D" stroke="#FDFCFC"/>
<path d="M615.5 459.856L615.424 459.735L613.271 456.29L617.644 454.979L617.765 454.942L617.854 454.854L620.781 451.925L625.424 450.068L631.2 454.4L631.211 454.408L631.223 454.416L639.91 460.208L637.522 467.851L637.5 467.924V481.882L635.633 485.615L631.297 487.543L631.122 487.621L631.044 487.795L626.677 497.5H622.116L622.017 497.871L620.066 505.181L616.235 507.576L616.115 507.65L616.053 507.776L613.191 513.5H604.657L599.908 510.175L598 505.404V500.095L599.858 495.446L605.582 494.493L605.766 494.463L605.884 494.32L610.884 488.32L611 488.181V483.75L616.8 479.4L617 479.25V471.31L616.874 471.168L613.613 467.5H617.258L616.96 466.803L615.5 463.396V459.856Z" fill="#211E6D" stroke="#070707"/>
<mask id="path-8-inside-1_944_31" fill="white">
<path d="M658 366L663.5 359L662 354L665 352.5L668 354L672.5 358L676 354L684 343.5L692 331H684L680.5 328L679 322L677.5 318.5V316L681 315L684.5 315.5L685.5 307.5V301.5L683 296.5L681.5 291.5L679 289L677.5 284.5L673.5 280V277.5L669.5 278.5L661 275L658.5 271.5H653.5L651.5 273.5L645.5 279.5H640.5L637.5 286L634.5 288L632 287.5V284L628.5 279.5V275L627 273.5L623.5 271.5L620 271L619.5 274L616.5 277.5H612V280.5L608.5 281.5L602.5 282.5L600.5 284L597.5 286L594 286.5L589.5 286L587.5 284H581L578 282.5L573.5 284V287.5V291.5V294.5V298.5L570 302.5L564.5 306.5L560.5 304.5L557 307L553 310H546.5L542 305.5L539 300.5H535L531.5 303.5L526.5 306.5L523.5 312L519 317.5L520.5 322.5L526 323.5L527.5 325L523.5 328.5L526 330L523.5 333.5V340L526 343.5L524.5 347L526.5 351.5L525 355L526.5 356L524.5 362.5L523.5 365.5L525 373L528.5 376.5V384.5L526.5 387.5L527.5 391.5L533 393L537 388.5H539L542.5 386.5L548 384.5L555.5 378.5L564.5 377L568 379V384.5L574 387.5L578 384.5H583L588 390.5L593.5 392.5L599.5 396.5H607L613 402.5V407L616.5 409L622 407L634 411L639.5 416.5L637.5 421L632.5 425.5L631 431H627L624.5 439.5L629.5 448.5L631 455L639.5 461L645.5 453L650.5 448.5V435.5L653 425.5L658 416.5L656.5 411V388.5L658 380L656.5 374.5L658 366Z"/>
</mask>
<path d="M658 366L663.5 359L662 354L665 352.5L668 354L672.5 358L676 354L684 343.5L692 331H684L680.5 328L679 322L677.5 318.5V316L681 315L684.5 315.5L685.5 307.5V301.5L683 296.5L681.5 291.5L679 289L677.5 284.5L673.5 280V277.5L669.5 278.5L661 275L658.5 271.5H653.5L651.5 273.5L645.5 279.5H640.5L637.5 286L634.5 288L632 287.5V284L628.5 279.5V275L627 273.5L623.5 271.5L620 271L619.5 274L616.5 277.5H612V280.5L608.5 281.5L602.5 282.5L600.5 284L597.5 286L594 286.5L589.5 286L587.5 284H581L578 282.5L573.5 284V287.5V291.5V294.5V298.5L570 302.5L564.5 306.5L560.5 304.5L557 307L553 310H546.5L542 305.5L539 300.5H535L531.5 303.5L526.5 306.5L523.5 312L519 317.5L520.5 322.5L526 323.5L527.5 325L523.5 328.5L526 330L523.5 333.5V340L526 343.5L524.5 347L526.5 351.5L525 355L526.5 356L524.5 362.5L523.5 365.5L525 373L528.5 376.5V384.5L526.5 387.5L527.5 391.5L533 393L537 388.5H539L542.5 386.5L548 384.5L555.5 378.5L564.5 377L568 379V384.5L574 387.5L578 384.5H583L588 390.5L593.5 392.5L599.5 396.5H607L613 402.5V407L616.5 409L622 407L634 411L639.5 416.5L637.5 421L632.5 425.5L631 431H627L624.5 439.5L629.5 448.5L631 455L639.5 461L645.5 453L650.5 448.5V435.5L653 425.5L658 416.5L656.5 411V388.5L658 380L656.5 374.5L658 366Z" fill="#211E6D" stroke="#FDFCFC" stroke-width="2" mask="url(#path-8-inside-1_944_31)"/>
<mask id="path-9-inside-2_944_31" fill="white">
<path d="M292.5 76H284V103.5L289 106.5V110L292.5 112.5L294.5 119L314.5 132H319.5L322 137L328.5 142.5H336L296 224.5L292.5 229.5L300.5 236.5L299 241.5L305.5 247.5V257L310.5 266.5L328.5 279.5L451 289L454 282.5V278L460.5 270.5H464L471.5 255V249.5L468.5 245.5L471.5 237V233L473.5 230.5L475 230L479 229L481.5 227L486 222L490 214.5L492 208L488 204H481L483 200L487 198L492.5 193L498 188H501L507.5 182L508.5 178L513.5 175.5V168.5L521.5 160.5L522 153L526 149.5L527.5 144.5L531.5 139.5L529.5 132.5L532 129.5V123L524 121L514.5 116.5L502.5 112.5L492.5 116.5V121V125.5L484.5 128.5L475 137H469.5V132L480 125.5V121H484.5L488.5 110L475 103.5H464.5L453.5 99.5L450 89.5H446L443 97L436 98.5L430.5 107L425 114.5V121L415 122L409 114.5L407 109L404.5 105L400.5 99.5L396.5 94.5V84.5L393 83L390.5 79.5V74.5L388 72.5H381.5L375.5 64H366V54.5L361.5 51.5H348H341.5L339 54.5L343.5 60L341.5 64L336 61.5H326.5H314.5L310.5 66.5H305.5L299 70H292.5V76Z"/>
</mask>
<path d="M292.5 76H284V103.5L289 106.5V110L292.5 112.5L294.5 119L314.5 132H319.5L322 137L328.5 142.5H336L296 224.5L292.5 229.5L300.5 236.5L299 241.5L305.5 247.5V257L310.5 266.5L328.5 279.5L451 289L454 282.5V278L460.5 270.5H464L471.5 255V249.5L468.5 245.5L471.5 237V233L473.5 230.5L475 230L479 229L481.5 227L486 222L490 214.5L492 208L488 204H481L483 200L487 198L492.5 193L498 188H501L507.5 182L508.5 178L513.5 175.5V168.5L521.5 160.5L522 153L526 149.5L527.5 144.5L531.5 139.5L529.5 132.5L532 129.5V123L524 121L514.5 116.5L502.5 112.5L492.5 116.5V121V125.5L484.5 128.5L475 137H469.5V132L480 125.5V121H484.5L488.5 110L475 103.5H464.5L453.5 99.5L450 89.5H446L443 97L436 98.5L430.5 107L425 114.5V121L415 122L409 114.5L407 109L404.5 105L400.5 99.5L396.5 94.5V84.5L393 83L390.5 79.5V74.5L388 72.5H381.5L375.5 64H366V54.5L361.5 51.5H348H341.5L339 54.5L343.5 60L341.5 64L336 61.5H326.5H314.5L310.5 66.5H305.5L299 70H292.5V76Z" fill="#211E6D" stroke="#FDFCFC" stroke-width="2" mask="url(#path-9-inside-2_944_31)"/>
<path d="M686 301.382L685.947 301.276L683.465 296.312L682.317 292.488L684.2 293.9L684.253 293.939L684.314 293.964L691.773 296.947L698.18 300.89L706.136 309.343L706.218 309.43L706.329 309.47L711.5 311.35V314.5H706.392L706.293 314.545L700.793 317.045L700.68 317.097L700.604 317.195L695.604 323.695L695.583 323.723L695.565 323.752L691.709 330.5H684.185L680.946 327.724L679.485 321.879L679.476 321.84L679.46 321.803L678 318.396V316.377L681.034 315.51L684.43 315.995L684.933 316.067L684.996 315.562L686 307.531V301.382Z" fill="#211E6D" stroke="#FDFCFC"/>
<path d="M731.763 283.94L731.874 284H736.065L732.615 289.175L722.655 298.638L722.636 298.657L714.636 307.157L714.62 307.175L711.845 310.411L706.774 308.567L701.868 303.661L698.88 300.175L698.829 300.115L698.762 300.074L692.262 296.074L692.226 296.052L692.186 296.036L684.749 293.062L680.827 290.12L679.438 288.73L678.335 285.424L681.62 284.484L681.621 284.485L683.621 283.985L683.7 283.966L683.769 283.922L689.008 280.587L691.243 281.929L698.729 286.42L701.849 288.5H713.691L713.835 288.372L718.793 283.909L723.222 281.449L725.468 280.551L731.763 283.94Z" fill="#211E6D" stroke="#FDFCFC"/>
<path d="M629 274.793L627.296 273.089L623.923 271.402L628.305 267.896L633.287 264.409L633.346 264.368L633.391 264.312L635.391 261.812L635.433 261.76L635.46 261.697L636.96 258.197L637.104 257.859L636.825 257.62L633.661 254.908L635.416 252.277L635.577 252.036L635.447 251.776L633.809 248.5H651.366L658.218 252.415L665.688 258.391L666.037 258.67L670.599 254.108L673 255.309V258.758L673.697 258.46L676.983 257.051L679.882 258.5H685.679L685.816 258.387L691.3 253.899L696.157 250.5H699.709L701.439 253.528L699.563 257.748L697.093 261.209L696.847 261.554L699.589 264.296L701.553 268.224L701.691 268.5H707.277L707.424 268.265L709.862 264.362L713.643 262H722.088L722.171 261.97L727.588 260H732.5V255.5H738.849L742.96 258.24L742.006 264.919L740.019 274.855L736.666 283H732.127L725.737 279.56L725.509 279.437L718.216 283.083L718.165 283.128L713.308 287.5H702.138L694.769 283.078L689 279.407L688.731 279.578L683.295 283.037L678.166 284.436L674 279.807V277.434L673.438 277.504L669.567 277.987L661.324 274.593L658.907 271.209L658.757 271H653.293L645.293 279H640.161L640.036 279.314L639.046 281.79L637.111 285.657L634.395 287.469L632.5 287.09V283.828L632.395 283.693L629 279.328V274.793Z" fill="#211E6D" stroke="#FDFCFC"/>
<path d="M674 245.407L673.967 245.32L671.563 239.071L673.907 235.791L673.981 235.687L673.996 235.559L674.8 228.719L675.553 230.224L675.632 230.382L681.293 232.955L681.392 233H686.181L686.32 232.884L689.32 230.384L689.417 230.303L689.464 230.186L690.393 227.862L694.118 226H699.5V227.324L697.609 229.688L697.567 229.74L697.54 229.803L696.067 233.237L693.616 236.18L693.165 236.721L693.824 236.968L697.694 238.419L699.609 240.812L699.836 241.096L700.176 240.968L704.09 239.5H707.242L709.593 242.791L709.617 242.824L711.293 244.5H714V238.095L714.954 235.71L716.276 233.064L720.805 233.971L723.849 236H730.453L735.91 236.992L735.955 237H740.191L743 242.618V257.065L739.277 254.584L739.151 254.5H731.5V259H727.412L727.329 259.03L721.912 261H713.356L713.235 261.076L709.235 263.576L709.137 263.637L709.076 263.735L706.724 267.5H702.309L700.447 263.776L700.411 263.704L698.153 261.446L700.407 258.291L700.437 258.249L700.457 258.203L702.457 253.703L702.56 253.472L702.435 253.252L700.435 249.752L700.29 249.5H695.831L695.697 249.603L685.332 257.5H680.118L677.017 255.949L676.803 256.04L674 257.241V254.64L673.658 254.525L672.354 254.091L671.628 252.638L673.812 250.891L674 250.74V245.407Z" fill="#211E6D" stroke="#FDFCFC"/>
<path d="M702.084 205.277L702.296 205.595L702.658 205.475L706.804 204.092L710.091 208.787L710.239 209H725.902L734.117 212.382L737.524 220.658L740 230.063V236H736.047L730.59 235.008L730.545 235H724.151L721.195 233.029L716.098 232.01L715.69 231.928L715.536 232.314L714.546 234.79L713 237.882V243.5H711.707L710.385 242.178L707.907 238.709L707.757 238.5H703.909L703.824 238.532L700.164 239.904L698.305 237.58L698.176 237.532L694.834 236.279L696.884 233.82L696.931 233.764L696.96 233.697L698.434 230.259L700.5 227.676V225H693.882L689.606 227.138L689.536 227.314L688.583 229.696L685.819 232H681.608L676.368 229.618L675.051 226.983L676.288 224.097L681.368 225.482L681.776 225.594L681.954 225.21L687.954 212.21L690.372 207.372L697.204 203.957L700.314 202.623L702.084 205.277Z" fill="#211E6D" stroke="#FDFCFC"/>
<path d="M628.5 185.387L628.451 185.284L623 173.886V167.641L626.779 161.5H649.853L666.699 172.401L680.663 184.37L690.092 193.302L693.053 199.224L693.191 199.5H699.14L699.888 201.746L694.288 204.547L689.797 206.543L689.622 206.621L689.544 206.795L685.045 216.793L682.556 222.269L681.266 224.417L676.132 223.018L675.691 222.897L675.532 223.324L674.032 227.324L674.011 227.38L674.004 227.438L673.02 235.311L670.593 238.709L670.437 238.929L670.533 239.18L673 245.593V250.293L670.913 252.38L671.036 252.686L671.374 253.53L670.8 253.1L670.453 252.84L670.146 253.146L665.963 257.329L658.812 251.609L658.782 251.585L651.748 247.565L651.633 247.5H634.709L636.907 241.343L640.248 239.435L640.677 239.189L640.438 238.757L637.938 234.257L637.866 234.131L637.739 234.062L632.5 231.203V223.963L632.494 223.927L630.494 210.427L630.488 210.384L630.475 210.342L628.475 204.342L625.065 193.141L628.354 189.854L628.5 189.707V185.387Z" fill="#211E6D" stroke="#FDFCFC"/>
<path d="M625.693 161.355L622.074 167.238L622 167.358V174.113L622.049 174.216L627.5 185.613V189.293L624.146 192.646L623.932 192.86L624.023 193.15L629.51 210.608L630.505 217.57L630.506 217.576L631.5 224.038V231.797L631.761 231.938L637.132 234.868L639.322 238.811L636.252 240.565L636.078 240.665L636.021 240.856L634.534 245.812L633.691 247.5H632.191L632.553 248.224L634.423 251.964L632.584 254.723L632.338 255.091L632.675 255.38L635.895 258.14L634.566 261.241L632.648 263.638L622.87 270.971L620.082 270.507L619.589 270.425L619.507 270.918L619.029 273.779L616.27 277H611.5V280.123L608.391 281.011L602.418 282.007L602.306 282.025L602.213 282.091L597.312 285.521L593.992 285.995L589.729 285.521L587.707 283.5H580.638L578.257 282.071L578.06 281.953L577.842 282.025L573.342 283.525L573 283.64V298.312L569.661 302.128L564.451 305.916L560.724 304.053L560.45 303.916L560.204 304.097L552.836 309.5H546.707L542.396 305.189L539.429 300.243L539.283 300H535.151L532.57 298.279L533.485 294.621L533.487 294.612L533.489 294.603L535.489 285.103L535.516 284.979L535.479 284.856L534 279.928V270.641L540.425 260.263L540.5 260.143V255.071L541.936 250.284L545.217 247.472L551.576 246.494L551.618 246.487L551.658 246.475L556.237 244.948L564.804 238.397L573.662 232H578.357L582.235 234.424L582.393 234.522L582.576 234.494L589.178 233.479L589.265 233.424L593.265 230.924L593.408 230.834L593.468 230.676L594.968 226.676L595.066 226.414L594.895 226.193L591.418 221.724L588.525 216.42L589.463 211.73L593.374 207.332L593.447 207.25L593.479 207.144L594.979 202.144L595.015 202.024L593.5 194.451V183.692L598.37 178.336L598.5 178.193V174.63L600.795 170.5H607.696L607.84 170.366L614.84 163.866L614.949 163.766L614.985 163.621L615.478 161.649L616.311 159.567L625.693 161.355Z" fill="#211E6D" stroke="#FDFCFC"/>
<mask id="path-17-inside-3_944_31" fill="white">
<path d="M582 524H587L588.5 517.5L591 513L592 509L597.5 506L598 500L599.5 495.5L606 494.5L611 488V483.5L617 479V471.5L613.5 467.5H617L615.5 463L615 460L613 456.5L617.5 455L621.5 451.5L625.5 450L632 454.5L630 448.5L625 439.5L627 431.5H631.5L633 425.5L638 421L639.5 416.5L634 411L625.5 408L622 407L617 408.5L613 407V402L611.5 400.5L606.5 396H599.5L593.5 392.5L588.5 390L583 384.5L577.5 384L574 387L568.5 384V378L563.5 376.5L555.5 378L547 384L540 387L536.5 388.5L533 392.5L528 391V387L523 386.5L518 384V389L511 391V399V400.5L511.5 405L507 406.5L502.5 411L500.5 414.5V419.5L503 424.5V429L500.5 432L497.5 435L500.5 438V441V447L490.5 454.5L486.5 453.5L481.5 452.5L472.5 453L467.5 454.5L463 457L460 456L455 457L446.5 458L443 465.5L440 467.5L434 471.5L433.5 476.5L432 479.5L434 484L443.5 480L450 482.5L452.5 483.5H456H461.5L467 489L471 491.5L474 488L487 486.5H491L496.5 487L500 489.5L501 494L502.5 497L501.5 502.5L502.5 508.5L505 512H511L513 515L511 518.5V523.5L509.5 530.5L512.5 534L514 537.5L515.5 541H525L527 536.5L534.5 537L540.5 535L545.5 533L550.5 531L555 530.5L560 527.5L568 526.5L573.5 529.5L582 524Z"/>
</mask>
<path d="M582 524H587L588.5 517.5L591 513L592 509L597.5 506L598 500L599.5 495.5L606 494.5L611 488V483.5L617 479V471.5L613.5 467.5H617L615.5 463L615 460L613 456.5L617.5 455L621.5 451.5L625.5 450L632 454.5L630 448.5L625 439.5L627 431.5H631.5L633 425.5L638 421L639.5 416.5L634 411L625.5 408L622 407L617 408.5L613 407V402L611.5 400.5L606.5 396H599.5L593.5 392.5L588.5 390L583 384.5L577.5 384L574 387L568.5 384V378L563.5 376.5L555.5 378L547 384L540 387L536.5 388.5L533 392.5L528 391V387L523 386.5L518 384V389L511 391V399V400.5L511.5 405L507 406.5L502.5 411L500.5 414.5V419.5L503 424.5V429L500.5 432L497.5 435L500.5 438V441V447L490.5 454.5L486.5 453.5L481.5 452.5L472.5 453L467.5 454.5L463 457L460 456L455 457L446.5 458L443 465.5L440 467.5L434 471.5L433.5 476.5L432 479.5L434 484L443.5 480L450 482.5L452.5 483.5H456H461.5L467 489L471 491.5L474 488L487 486.5H491L496.5 487L500 489.5L501 494L502.5 497L501.5 502.5L502.5 508.5L505 512H511L513 515L511 518.5V523.5L509.5 530.5L512.5 534L514 537.5L515.5 541H525L527 536.5L534.5 537L540.5 535L545.5 533L550.5 531L555 530.5L560 527.5L568 526.5L573.5 529.5L582 524Z" fill="#211E6D" stroke="#FDFCFC" stroke-width="2" mask="url(#path-17-inside-3_944_31)"/>
<path d="M396 443.907L395.967 443.82L393.5 437.406V429.167L399.352 421.363L405.784 416.911L406 416.762V410.184L411.232 404H418.328L418.459 403.699L423.402 392.329L429.716 387.957L433.138 386.98L433.404 386.904L435.48 379.638L435.492 379.599L435.496 379.559L436.483 371.165L439.429 366.257L439.5 366.139V360.662L443.404 355.294L443.5 355.162V349.643L445.924 345.765L445.949 345.725L445.967 345.68L448.438 339.252L450 337.301L451.428 339.085L449.536 343.814L449.452 344.022L451.609 348.337L451.713 348.409L456.713 351.909L456.768 351.947L456.829 351.97L462.329 353.97L462.412 354H465.822L465.955 353.707L468.417 348.289L471.939 344.767L475.527 349.7L476.508 355.09L476.679 356.028L477.354 355.354L480.62 352.086L485.314 353.964L485.585 354.072L485.812 353.891L488.034 352.112L497.233 357.923L497.817 358.292L497.985 357.621L499.341 352.198L503.297 353.957L503.475 354.036L503.658 353.975L509.582 352H514.188L514.329 351.876L518.188 348.5H525.17L526.455 351.5L525.04 354.803L524.877 355.186L525.223 355.416L526.404 356.203L525.025 360.342L525.021 360.355L525.018 360.368L523.518 365.868L523.485 365.985L523.511 366.104L525.011 373.104L525.042 373.249L528.5 376.707V384.824L526.76 387H524.101L518.192 384.538L517.5 384.25V388.623L510.5 390.623V400.05L510.51 400.098L511.435 404.723L505.776 407.553L505.729 407.576L505.688 407.609L503.188 409.609L503.11 409.671L503.062 409.757L500.562 414.257L500.5 414.37V419.618L503 424.618V428.793L496.729 435.063L497.209 435.407L500.5 437.758V446.759L490.883 454.452L481.627 452.017L481.541 451.994L481.452 452.002L470.952 453.002L470.866 453.011L470.787 453.048L462.528 456.934L460.257 455.571L460.074 455.462L459.868 455.518L454.417 457.004L446.469 457.501L446.164 457.52L446.042 457.8L442.604 465.654L433.991 470.919L427.248 467.065L427.181 467.027L427.104 467.011L420.191 465.529L407.77 457.579L407.646 457.5H399.5V455.138L400.929 452.757L401.186 452.328L400.757 452.071L396 449.217V443.907Z" fill="#211E6D" stroke="#FDFCFC"/>
<path d="M502.5 398.5V408H486.5V398.5H502.5Z" fill="#211E6D" stroke="#FDFCFC"/>
<path d="M238 301.367L237.935 301.252L236 297.866V274.562L237.043 270.391L236.9 270.2L235.976 268.968L295.017 267L295.436 266.985L295.495 266.57L296.488 259.616L298.475 253.658L298.547 253.44L298.429 253.243L295.582 248.5L296.929 246.257L298.396 243.811L299.515 242.691L305 247.719V257.124L305.058 257.232L310.058 266.732L310.113 266.84L310.212 266.909L323.712 276.409L328.193 279.895L328.312 279.987L328.463 279.999L361.963 282.499H361.965L411.465 285.999V285.998L428.456 287.498L450.234 289.434L443.55 303.282L443.516 303.353L443.505 303.43L442.015 313.858L439.545 319.293L439.426 319.556L439.593 319.791L441.97 323.118L441.008 328.41L441 328.455V341.618L443.914 347.446L442.6 349.2L442.5 349.333V354.837L438.596 360.206L438.5 360.338V365.861L435.571 370.743L435.511 370.844L435.502 370.962L435.005 377.412L432.593 386.096L429.362 387.02L429.283 387.042L429.216 387.089L422.716 391.589L422.599 391.67L422.541 391.801L417.672 403H410.769L410.618 403.177L405 409.816V416.238L398.716 420.589L398.648 420.635L398.6 420.7L392.5 428.833V437.603L392.54 437.697L395.241 444H382.734L380.637 441.483L384.9 435.8L385 435.667V428.46L384.188 429.109L376.718 435.084L373.531 436.905L368.294 433.096L368.023 432.898L367.738 433.074L361.359 437H357.627L340.238 427.561L339.967 427.413L339.713 427.591L334.843 431H328.214L328.069 431.246L323.178 439.561L316.942 441H311.309L308.447 435.276L308.377 435.136L308.239 435.062L297.5 429.203V418.618L299.045 415.528L298.968 415.324L297.468 411.324L297.347 411H265.433L262.995 394.428L262.967 394.24L262.823 394.118L257.365 389.5H263V381.361L262.929 381.243L258.5 373.861V366.309L258.372 366.165L254.237 361.571L259.8 357.4L259.901 357.324L259.954 357.21L262.933 350.755L268.403 343.296L268.5 343.164V334.426L268.479 334.354L265.041 323.062L268.432 317.252L268.613 316.941L268.376 316.671L264.876 312.671L264.727 312.5H259.75L258.4 310.7L258.25 310.5H238V301.367Z" fill="#211E6D" stroke="#FDFCFC"/>
<path d="M166 290.293L163.099 287.392L157.856 290.013L148.944 291.003L148.923 291.006L148.902 291.01L139.032 292.983L137.22 292.379L143.248 288.935L143.405 288.845L143.468 288.676L144.87 284.936L151.873 283.534L156.193 286.895L156.471 287.111L156.769 286.922L162.253 283.431L165.516 281.566L169.276 283.447L169.649 283.634L169.9 283.3L172.9 279.3L172.936 279.252L172.96 279.197L174.33 276H179.181L179.32 275.884L182.181 273.5H186.768L191.068 267.049L190.957 266.797L189.146 262.723L197.234 258.441L197.321 258.396L197.384 258.32L199.734 255.5H211.293L217.293 261.5H220.5V264.757L220.709 264.907L224.209 267.406L228.693 270.895L229.069 271.188L229.38 270.825L232.125 267.621L234.67 268.894L235.956 270.609L235.015 274.379L235 274.438V296.597L235.036 296.686L237.001 301.598C237.007 302.952 237.129 304.964 237.251 306.734C237.378 308.575 237.5 310.123 237.5 310.5C237.5 310.719 237.62 310.868 237.707 310.945C237.792 311.021 237.887 311.069 237.961 311.1C238.112 311.162 238.304 311.207 238.505 311.243C238.916 311.317 239.492 311.373 240.18 311.415C241.562 311.5 243.464 311.537 245.56 311.55C249.655 311.574 254.556 311.503 257.793 311.5L259.793 313.5H264.273L267.387 317.058L264.068 322.748L263.948 322.953L264.032 323.176L265.521 327.146L267.5 334.566V342.842L264.093 347.709L261.593 351.209L261.554 351.265L261.53 351.329L259.584 356.68L253.397 360.962L245.114 359.014L245.058 359H231.195L224.34 352.634L224.255 352.555L224.144 352.521L214.245 349.552L207.325 343.62L207.102 343.428L206.824 343.532L203.126 344.919L198.189 339.982L197.958 340.002L186.159 340.984L180.816 336.613L180.802 336.602L180.787 336.591L170.877 329.653L163.548 316.95L165.971 310.168L166.036 309.986L165.962 309.808L163.55 304.019L166 299.118V290.293Z" fill="#211E6D" stroke="#FDFCFC"/>
<path d="M4.5 259.191L4.22363 259.053L0.5 257.19V254.707L3.5 251.707V248.693L7.3418 249.975L26.8857 256.489L26.9326 256.495L37.9033 257.991H37.9043L55.9043 261.49L64.8916 263.488L71.335 264.975L101.288 278.953L101.299 278.958L101.31 278.962L135.31 292.962L135.401 293H136.404L138.11 293.682L130.204 301.589L124.204 304.589L119.793 309H113.75L113.6 309.2L109.155 315.124L102.941 318.948L96.168 316.529L96.0869 316.5H79.9238L79.8506 316.522L72.0088 318.973L65.5 316.647V296.618L66.5 294.618V287.894L65.6699 288.625L53.3115 299.5H37.7725L32.4199 291.229L32.2725 291H17.3418L19.9385 286.239L20 286.128V281.754L19.8047 281.604L13.4258 276.696L11.9746 272.342L11.8604 272H9.5V268.293L4.5 263.293V259.191Z" fill="#211E6D" stroke="#FDFCFC"/>
<path d="M507 208.728L506.771 208.58L498.358 203.136L496.416 200.223L496.268 200H492.601L487.436 197.848L498.187 188.5H501.195L501.339 188.367L507.839 182.367L507.949 182.267L507.985 182.121L508.935 178.321L513.757 175.429L514 175.283V168.707L521.986 160.721L521.999 160.533L522.484 153.239L526.329 149.876L526.442 149.777L526.482 149.632L527.951 144.244L531.874 139.832L532.057 139.627L531.98 139.362L530.053 132.616L532.384 129.82L532.5 129.681V124.207L534.197 125.904L534.261 125.938L539.761 128.938L539.872 129H541.293L545.347 133.054L545.621 132.985L551.39 131.543L559.147 137.36L564.5 144.173V149.336L559 156.836V162.823L559.73 162.443L572.23 155.943L572.284 155.916L572.329 155.876L576.188 152.5H581.707L584.207 150H587.862L600.243 157.429L600.332 157.482L600.436 157.496L615.333 159.418L614.064 163.222L607.305 169.5H600.206L600.062 169.757L597.562 174.257L597.5 174.37V177.807L592.63 183.164L592.5 183.307V194.55L592.51 194.598L593.985 201.976L592.553 206.749L588.626 211.168L588.536 211.27L588.51 211.402L587.51 216.402L587.474 216.58L587.562 216.739L590.562 222.239L590.58 222.275L590.605 222.307L593.934 226.586L592.591 230.166L588.822 232.521L582.606 233.478L578.765 231.076L578.644 231H573.336L565.704 236.597L565.7 236.6L555.765 244.051L551.38 245.512L544.924 246.506L544.783 246.527L544.675 246.62L541.175 249.62L541.063 249.716L541.021 249.856L539.521 254.856L539.5 254.927V259.858L533.075 270.237L533 270.357V280.073L533.021 280.144L534.485 285.023L533.015 292.379L531.658 297.801L527.787 296.08L519.24 287.533L521.82 285.384L522.262 285.017L521.836 284.63L516.5 279.778V274H512.163L512.924 271.333L516.248 269.435L516.5 269.29V265.229L519.825 262.38L519.829 262.376L523.829 258.876L524 258.727V253.153L523.676 253.032L519.676 251.532L519.538 251.48L519.396 251.511L512.68 252.949L505 244.31V240H501.33L500.146 237.235L503.724 235.447L503.965 235.326L503.996 235.059L504.976 226.73L506.854 224.854L507 224.707V208.728Z" fill="#211E6D" stroke="#FDFCFC"/>
<path d="M472 249.333L471.9 249.2L469.049 245.397L469.974 242.159L471.964 237.186L472 237.097V233.176L473.798 230.928L479.658 228.975L479.771 228.938L479.854 228.854L486.406 222.301L486.441 222.235L490.441 214.735L490.464 214.693L490.478 214.647L492.478 208.147L492.566 207.859L488.207 203.5H481.809L483.372 200.372L487.022 198.547L489.29 199.454L492.382 201H495.732L497.584 203.777L497.642 203.863L497.729 203.92L506 209.271V224.293L504 226.293V228.959L503.048 234.666L499.276 236.553L498.854 236.764L499.04 237.197L500.54 240.697L500.67 241H504V244.69L504.126 244.832L512.126 253.832L512.32 254.05L512.604 253.989L519.462 252.52L523 253.846V258.293L520.167 261.126L515.5 264.756V268.709L512.252 270.565L512.075 270.667L512.02 270.862L511.02 274.362L510.837 275H515.5V280.221L515.664 280.37L520.738 284.983L518.18 287.116L517.76 287.467L527.212 296.919L527.297 296.957L531.759 298.939L534.173 300.55L531.205 303.094L526.243 306.071L526.118 306.146L526.053 306.276L523.084 312.214L518.628 317.165L518.434 317.382L518.525 317.658L520.025 322.158L520.11 322.412L520.368 322.482L525.74 323.947L526.769 324.976L523.171 328.124L522.654 328.575L523.243 328.929L525.306 330.166L523.076 333.735L523 333.856V339.644L523.076 339.765L525.437 343.542L524.04 346.803L523.949 347.017L524.053 347.224L524.191 347.5H517.812L517.671 347.624L513.812 351H509.419L509.342 351.025L506.342 352.025L503.525 352.964L499.203 351.043L498.659 350.802L498.515 351.379L497.178 356.724L492.771 354.08L488.277 351.084L487.974 350.881L487.688 351.109L485.414 352.928L480.686 351.036L480.38 350.913L480.146 351.146L477.321 353.971L476.492 349.41L476.47 349.286L476.391 349.188L472.391 344.188L472.064 343.779L471.671 344.124L467.671 347.624L467.59 347.694L467.545 347.793L465.178 353H462.588L457.232 351.053L452.391 347.663L450.547 343.977L452.464 339.186L452.572 338.915L452.391 338.688L450 335.699L447.609 338.688L447.541 338.772L447.515 338.879L447.024 340.837L445.047 345.288L444.479 346.421L442 341.873V328.547L442.992 323.09L443.034 322.855L442.88 322.675L440.104 319.436L442.938 314.239L442.982 314.16L442.995 314.07L444.484 303.643L454.453 282.211L454.5 282.11V278.186L460.729 271H464.313L464.45 270.718L471.95 255.218L472 255.114V249.333Z" fill="#211E6D" stroke="#FDFCFC"/>
<path d="M391 74.2598L390.812 74.1094L388.176 72H381.759L375.908 63.7119L375.759 63.5H366.5V52.6514L367.584 54.2773L367.662 54.3936L367.788 54.4531L375.288 57.9531L375.389 58H380.188L380.329 57.876L384.076 54.5967L387.776 56.4473L387.978 56.5479L388.186 56.4639L392.879 54.5859L396.293 58H400.172L400.307 57.8945L404.807 54.3945L404.884 54.335L404.933 54.25L412.433 41.25L412.455 41.2119L412.47 41.1709L414.442 35.7441L421.359 26.8506L426.816 22.3867L427 22.2373V17.7812L432.65 20.3896L435.527 25.1836L437 32.0537V41.1016L437.039 41.1943L442.539 54.1943V54.1953L442.544 54.2051L447.044 64.2051L447.134 64.4053L451.842 65.9746L451.855 65.9785L451.868 65.9824L457.142 67.4199L459.44 72.4785L451.585 86.7178L449.76 89H445.661L445.536 89.3145L442.635 96.5664L435.896 98.0107L435.683 98.0566L435.571 98.2432L432.584 103.221L426.1 112.2L424.5 114.333V120.548L415.221 121.476L409.44 114.25L407.47 108.829L407.446 108.765L407.407 108.709L402.407 101.709L402.403 101.704L397 94.3359V84.1699L396.697 84.04L393.325 82.5947L391 79.3389V74.2598Z" fill="#211E6D" stroke="#FDFCFC"/>
<mask id="path-26-inside-4_944_31" fill="white">
<path d="M69.5 95.5V108.5L78 115V120.5L83 129L81.5 133.5L72 189.5L67.5 188.5L65.5 186.5H58.5L53 191L45.5 192.5L39.5 194L28.5 200L19 207.5L16.5 219L12.5 223.5L14 232.5V236.5H10.5L4 242L3 248L27 256L39.5 258L55.5 261L71.5 264.5L94.5 275.5L136 293L143 288.5L144.5 284.5L152 283L156.5 286.5L165.5 281L169.5 283L172.5 279.5L174 275.5H179L182 273H186.5L190.5 267L188.5 262.5L197 258L199.5 255H211.5L217.5 261H221V264.5L229 270.5L232 267L235 268.5L295 267L296 259.5L298 253.5L295 248.5L298 243.5L299.5 242V239.5L300.5 236.5L296.5 233L292.5 229.5L296.5 224.5L315 185.5L325 165.5L334 146.5L336 142.5H328.5L325 139L322 137L319.5 132H314.5L308 127.5L298.5 121.5L294.5 119L292.5 112.5L289 110V106.5L284 103.5V95H264L260 100.5L256.5 107V112L254 116L249.5 113L242.5 107L239 108.5L234 111L232 112V125.5H226.5L216.5 116L219.5 112L212.5 100.5V92.5L215 88L216.5 84.5L212 71L210 65L201.5 60.5L198.5 59L191.5 62.5H187L184.5 66V70.5L181 73H176.5L169.5 77.5L164.5 79.5L163.5 83.5L157.5 87.5L155 83.5H150.5L146.5 87.5H141.5L131.5 80.5L126.5 79V70.5L120.5 62.5H117L110.5 70.5L104 66L102 70.5H75L73 73V83.5H83L87 89.5L85.5 93.5L81.5 91.5H76.5L69.5 95.5Z"/>
</mask>
<path d="M69.5 95.5V108.5L78 115V120.5L83 129L81.5 133.5L72 189.5L67.5 188.5L65.5 186.5H58.5L53 191L45.5 192.5L39.5 194L28.5 200L19 207.5L16.5 219L12.5 223.5L14 232.5V236.5H10.5L4 242L3 248L27 256L39.5 258L55.5 261L71.5 264.5L94.5 275.5L136 293L143 288.5L144.5 284.5L152 283L156.5 286.5L165.5 281L169.5 283L172.5 279.5L174 275.5H179L182 273H186.5L190.5 267L188.5 262.5L197 258L199.5 255H211.5L217.5 261H221V264.5L229 270.5L232 267L235 268.5L295 267L296 259.5L298 253.5L295 248.5L298 243.5L299.5 242V239.5L300.5 236.5L296.5 233L292.5 229.5L296.5 224.5L315 185.5L325 165.5L334 146.5L336 142.5H328.5L325 139L322 137L319.5 132H314.5L308 127.5L298.5 121.5L294.5 119L292.5 112.5L289 110V106.5L284 103.5V95H264L260 100.5L256.5 107V112L254 116L249.5 113L242.5 107L239 108.5L234 111L232 112V125.5H226.5L216.5 116L219.5 112L212.5 100.5V92.5L215 88L216.5 84.5L212 71L210 65L201.5 60.5L198.5 59L191.5 62.5H187L184.5 66V70.5L181 73H176.5L169.5 77.5L164.5 79.5L163.5 83.5L157.5 87.5L155 83.5H150.5L146.5 87.5H141.5L131.5 80.5L126.5 79V70.5L120.5 62.5H117L110.5 70.5L104 66L102 70.5H75L73 73V83.5H83L87 89.5L85.5 93.5L81.5 91.5H76.5L69.5 95.5Z" fill="#211E6D" stroke="#FDFCFC" stroke-width="2" mask="url(#path-26-inside-4_944_31)"/>
<path d="M181 31.7139L180.754 31.5693L172.5 26.7139V21.5H182.666L185.038 27.1924L185.167 27.5H194.151L194.277 27.416L198.446 24.6357L206.657 32.3643L207.109 32.79L207.429 32.2568L210.429 27.2568L210.5 27.1387V24.3193L216.61 21.5H223.081L223.158 21.4746L232.243 18.4463L232.312 18.3906L237.176 14.5H242.667L250.8 8.40039L251 8.25V0.5H259.793L263.384 4.09082L259.559 11.2646L259.286 11.7764L259.832 11.9707L266.619 14.3945L270.468 24.0146L266.525 35.8418L266.522 35.8525L266.52 35.8623L263.52 46.3623L263.478 46.5068L263.523 46.6504L266.523 56.1504L266.531 56.1777L266.543 56.2031L270.574 65.2734L270.625 65.3311L278.125 73.8311L278.274 74H283.5V94.5H263.745L263.596 94.7061L259.596 100.206L259.576 100.233L259.56 100.263L256.06 106.763L256 106.874V111.856L253.849 115.298L248.308 111.604L242.836 106.63L242.588 106.404L242.285 106.549L231.785 111.549L231.5 111.685V125H226.7L217.167 115.943L219.9 112.3L220.102 112.031L216.926 106.738L213 100.358V92.6182L216.947 84.7236L217.043 84.5312L216.97 84.3291L212.974 73.3408L210.479 64.8594L210.42 64.6553L210.231 64.5566L199 58.6963V52.5H186.194L187.475 48.6582L187.568 48.377L187.366 48.1602L181 41.3037V31.7139Z" fill="#211E6D" stroke="#FDFCFC"/>
</svg>
